<?xml version="1.0" encoding="UTF-8"?>
<svg xmlns="http://www.w3.org/2000/svg" version="1.1" width="841mm" height="594mm" viewBox="0 0 841 594">
<rect width="841" height="594" fill="#ffffff"/>
<defs><clipPath id="rec1"><rect x="25.00" y="10.00" width="806.00" height="574.00"/></clipPath><pattern id="lsfc" patternUnits="userSpaceOnUse" width="0.9" height="0.9" patternTransform="rotate(45)"><line x1="0" y1="0" x2="0" y2="0.9" stroke="#444" stroke-width="0.06"/></pattern><pattern id="concreto" patternUnits="userSpaceOnUse" width="1.1" height="1.1"><line x1="0" y1="0" x2="1.1" y2="1.1" stroke="#666" stroke-width="0.06"/><line x1="1.1" y1="0" x2="0" y2="1.1" stroke="#666" stroke-width="0.06"/></pattern></defs>
<g data-tipo="moldura">
<rect x="25.0" y="10" width="806.00" height="574.00" fill="none" stroke="#000" stroke-width="0.7"/>
</g>
<g data-tipo="carimbo" data-cod="06" data-rev="R17">
<polygon points="656.000,522.000 831.000,522.000 831.000,584.000 656.000,584.000" stroke="#000000" stroke-width="0.7" fill="#fff" stroke-linejoin="miter"/>
<text x="659.000" y="528.000" font-family="Helvetica, Arial, sans-serif" font-size="3.50" font-weight="bold" fill="#000000" text-anchor="start" dominant-baseline="middle">PROJETO PORTO REAL</text>
<text x="659.000" y="534.500" font-family="Helvetica, Arial, sans-serif" font-size="1.40" font-weight="normal" fill="#000000" text-anchor="start" dominant-baseline="middle">RESIDENCIA UNIFAMILIAR  |  MANAUS - AM  |  SU16 TARUMA (H)</text>
<line x1="656.000" y1="538.000" x2="831.000" y2="538.000" stroke="#000000" stroke-width="0.3" fill="none" stroke-linecap="round"/>
<text x="659.000" y="544.000" font-family="Helvetica, Arial, sans-serif" font-size="1.40" font-weight="normal" fill="#8a8a8a" text-anchor="start" dominant-baseline="middle">PROJETO ARQUITETONICO</text>
<text x="659.000" y="550.000" font-family="Helvetica, Arial, sans-serif" font-size="3.50" font-weight="bold" fill="#000000" text-anchor="start" dominant-baseline="middle">CORTES AA E BB</text>
<line x1="656.000" y1="555.000" x2="831.000" y2="555.000" stroke="#000000" stroke-width="0.3" fill="none" stroke-linecap="round"/>
<line x1="702.000" y1="555.000" x2="702.000" y2="584.000" stroke="#000000" stroke-width="0.3" fill="none" stroke-linecap="round"/>
<line x1="748.000" y1="555.000" x2="748.000" y2="584.000" stroke="#000000" stroke-width="0.3" fill="none" stroke-linecap="round"/>
<line x1="789.000" y1="555.000" x2="789.000" y2="584.000" stroke="#000000" stroke-width="0.3" fill="none" stroke-linecap="round"/>
<line x1="789.000" y1="555.000" x2="789.000" y2="584.000" stroke="#000000" stroke-width="0.3" fill="none" stroke-linecap="round"/>
<text x="659.000" y="560.000" font-family="Helvetica, Arial, sans-serif" font-size="1.40" font-weight="normal" fill="#8a8a8a" text-anchor="start" dominant-baseline="middle">BASE GEOMETRICA</text>
<text x="659.000" y="566.000" font-family="Helvetica, Arial, sans-serif" font-size="1.80" font-weight="normal" fill="#000000" text-anchor="start" dominant-baseline="middle">Lista Consolidada</text>
<text x="659.000" y="571.000" font-family="Helvetica, Arial, sans-serif" font-size="1.40" font-weight="normal" fill="#000000" text-anchor="start" dominant-baseline="middle">pos-R32 (prevalece)</text>
<text x="659.000" y="578.000" font-family="Helvetica, Arial, sans-serif" font-size="1.40" font-weight="normal" fill="#8a8a8a" text-anchor="start" dominant-baseline="middle">UNIDADE MESTRE: mm</text>
<text x="705.000" y="560.000" font-family="Helvetica, Arial, sans-serif" font-size="1.40" font-weight="normal" fill="#8a8a8a" text-anchor="start" dominant-baseline="middle">ESCALA</text>
<text x="705.000" y="567.000" font-family="Helvetica, Arial, sans-serif" font-size="5.00" font-weight="bold" fill="#000000" text-anchor="start" dominant-baseline="middle">1:60</text>
<text x="705.000" y="575.000" font-family="Helvetica, Arial, sans-serif" font-size="1.40" font-weight="normal" fill="#000000" text-anchor="start" dominant-baseline="middle">FORMATO A1</text>
<text x="705.000" y="580.000" font-family="Helvetica, Arial, sans-serif" font-size="1.40" font-weight="normal" fill="#000000" text-anchor="start" dominant-baseline="middle">MALHA 600/300/150</text>
<text x="751.000" y="560.000" font-family="Helvetica, Arial, sans-serif" font-size="1.40" font-weight="normal" fill="#8a8a8a" text-anchor="start" dominant-baseline="middle">EMISSAO</text>
<text x="751.000" y="566.000" font-family="Helvetica, Arial, sans-serif" font-size="1.80" font-weight="normal" fill="#000000" text-anchor="start" dominant-baseline="middle">ESTUDO PRELIMINAR  R17</text>
<text x="751.000" y="572.000" font-family="Helvetica, Arial, sans-serif" font-size="1.40" font-weight="normal" fill="#c00" text-anchor="start" dominant-baseline="middle">NAO LIBERADO PARA OBRA</text>
<text x="751.000" y="578.000" font-family="Helvetica, Arial, sans-serif" font-size="1.40" font-weight="normal" fill="#c00" text-anchor="start" dominant-baseline="middle">SEM ART / RRT</text>
<text x="792.000" y="560.000" font-family="Helvetica, Arial, sans-serif" font-size="1.40" font-weight="normal" fill="#8a8a8a" text-anchor="start" dominant-baseline="middle">PRANCHA</text>
<text x="792.000" y="570.000" font-family="Helvetica, Arial, sans-serif" font-size="7.00" font-weight="bold" fill="#000000" text-anchor="start" dominant-baseline="middle">06</text>
<text x="792.000" y="579.000" font-family="Helvetica, Arial, sans-serif" font-size="1.40" font-weight="normal" fill="#000000" text-anchor="start" dominant-baseline="middle">de 35   REV R17</text>
</g>
<g data-tipo="notas">
<text x="656.000" y="496.200" font-family="Helvetica, Arial, sans-serif" font-size="1.80" font-weight="bold" fill="#000000" text-anchor="start" dominant-baseline="middle">NOTAS</text>
<text x="656.000" y="501.200" font-family="Helvetica, Arial, sans-serif" font-size="1.40" font-weight="normal" fill="#000000" text-anchor="start" dominant-baseline="middle">- Pe-direito acabado 2600 mm; piso a piso 3000 mm.</text>
<text x="656.000" y="505.400" font-family="Helvetica, Arial, sans-serif" font-size="1.40" font-weight="normal" fill="#000000" text-anchor="start" dominant-baseline="middle">- Topo da platibanda +6.150 m (dois pavimentos) e +3.150 m (um pavimento) — H.</text>
<text x="656.000" y="509.600" font-family="Helvetica, Arial, sans-serif" font-size="1.40" font-weight="normal" fill="#000000" text-anchor="start" dominant-baseline="middle">- Fundacao em radier 180 mm, fck 30 MPa, aco CA-50 (H).</text>
<text x="656.000" y="513.800" font-family="Helvetica, Arial, sans-serif" font-size="1.40" font-weight="normal" fill="#000000" text-anchor="start" dominant-baseline="middle">- Vedacao em Light Steel Frame; vaos grandes em perfis metalicos estruturais.</text>
</g>
<g clip-path="url(#rec1)" data-tipo="recorte">
<polygon points="80.000,192.500 130.000,192.500 130.000,190.000 80.000,190.000" stroke="#000000" stroke-width="0.6" fill="url(#concreto)" stroke-linejoin="miter"/>
<polygon points="80.000,146.667 130.000,146.667 130.000,144.167 80.000,144.167" stroke="#000000" stroke-width="0.6" fill="url(#concreto)" stroke-linejoin="miter"/>
<polygon points="80.000,144.167 130.000,144.167 130.000,137.500 80.000,137.500" stroke="#000000" stroke-width="0.4" fill="#fff" stroke-linejoin="miter"/>
<polygon points="130.000,243.000 170.000,243.000 170.000,240.000 130.000,240.000" stroke="#000000" stroke-width="0.6" fill="url(#concreto)" stroke-linejoin="miter"/>
<polygon points="130.000,192.500 170.000,192.500 170.000,190.000 130.000,190.000" stroke="#000000" stroke-width="0.6" fill="url(#concreto)" stroke-linejoin="miter"/>
<polygon points="130.000,146.667 170.000,146.667 170.000,144.167 130.000,144.167" stroke="#000000" stroke-width="0.6" fill="url(#concreto)" stroke-linejoin="miter"/>
<polygon points="130.000,144.167 170.000,144.167 170.000,137.500 130.000,137.500" stroke="#000000" stroke-width="0.4" fill="#fff" stroke-linejoin="miter"/>
<polygon points="170.000,243.000 240.000,243.000 240.000,240.000 170.000,240.000" stroke="#000000" stroke-width="0.6" fill="url(#concreto)" stroke-linejoin="miter"/>
<polygon points="170.000,196.667 240.000,196.667 240.000,194.167 170.000,194.167" stroke="#000000" stroke-width="0.6" fill="url(#concreto)" stroke-linejoin="miter"/>
<polygon points="170.000,194.167 240.000,194.167 240.000,187.500 170.000,187.500" stroke="#000000" stroke-width="0.4" fill="#fff" stroke-linejoin="miter"/>
<polygon points="128.750,240.000 131.250,240.000 131.250,196.667 128.750,196.667" stroke="#000000" stroke-width="0.6" fill="url(#lsfc)" stroke-linejoin="miter"/>
<polygon points="238.750,240.000 241.250,240.000 241.250,196.667 238.750,196.667" stroke="#000000" stroke-width="0.6" fill="url(#lsfc)" stroke-linejoin="miter"/>
<polygon points="78.750,190.000 81.250,190.000 81.250,146.667 78.750,146.667" stroke="#000000" stroke-width="0.6" fill="url(#lsfc)" stroke-linejoin="miter"/>
<polygon points="168.750,190.000 171.250,190.000 171.250,146.667 168.750,146.667" stroke="#000000" stroke-width="0.6" fill="url(#lsfc)" stroke-linejoin="miter"/>
<line x1="65.000" y1="240.000" x2="305.000" y2="240.000" stroke="#000000" stroke-width="0.6" fill="none" stroke-linecap="round"/>
<line x1="65.000" y1="240.000" x2="70.000" y2="244.167" stroke="#8a8a8a" stroke-width="0.18" fill="none" stroke-linecap="round"/>
<line x1="75.000" y1="240.000" x2="80.000" y2="244.167" stroke="#8a8a8a" stroke-width="0.18" fill="none" stroke-linecap="round"/>
<line x1="85.000" y1="240.000" x2="90.000" y2="244.167" stroke="#8a8a8a" stroke-width="0.18" fill="none" stroke-linecap="round"/>
<line x1="95.000" y1="240.000" x2="100.000" y2="244.167" stroke="#8a8a8a" stroke-width="0.18" fill="none" stroke-linecap="round"/>
<line x1="105.000" y1="240.000" x2="110.000" y2="244.167" stroke="#8a8a8a" stroke-width="0.18" fill="none" stroke-linecap="round"/>
<line x1="115.000" y1="240.000" x2="120.000" y2="244.167" stroke="#8a8a8a" stroke-width="0.18" fill="none" stroke-linecap="round"/>
<line x1="125.000" y1="240.000" x2="130.000" y2="244.167" stroke="#8a8a8a" stroke-width="0.18" fill="none" stroke-linecap="round"/>
<line x1="135.000" y1="240.000" x2="140.000" y2="244.167" stroke="#8a8a8a" stroke-width="0.18" fill="none" stroke-linecap="round"/>
<line x1="145.000" y1="240.000" x2="150.000" y2="244.167" stroke="#8a8a8a" stroke-width="0.18" fill="none" stroke-linecap="round"/>
<line x1="155.000" y1="240.000" x2="160.000" y2="244.167" stroke="#8a8a8a" stroke-width="0.18" fill="none" stroke-linecap="round"/>
<line x1="165.000" y1="240.000" x2="170.000" y2="244.167" stroke="#8a8a8a" stroke-width="0.18" fill="none" stroke-linecap="round"/>
<line x1="175.000" y1="240.000" x2="180.000" y2="244.167" stroke="#8a8a8a" stroke-width="0.18" fill="none" stroke-linecap="round"/>
<line x1="185.000" y1="240.000" x2="190.000" y2="244.167" stroke="#8a8a8a" stroke-width="0.18" fill="none" stroke-linecap="round"/>
<line x1="195.000" y1="240.000" x2="200.000" y2="244.167" stroke="#8a8a8a" stroke-width="0.18" fill="none" stroke-linecap="round"/>
<line x1="205.000" y1="240.000" x2="210.000" y2="244.167" stroke="#8a8a8a" stroke-width="0.18" fill="none" stroke-linecap="round"/>
<line x1="215.000" y1="240.000" x2="220.000" y2="244.167" stroke="#8a8a8a" stroke-width="0.18" fill="none" stroke-linecap="round"/>
<line x1="225.000" y1="240.000" x2="230.000" y2="244.167" stroke="#8a8a8a" stroke-width="0.18" fill="none" stroke-linecap="round"/>
<line x1="235.000" y1="240.000" x2="240.000" y2="244.167" stroke="#8a8a8a" stroke-width="0.18" fill="none" stroke-linecap="round"/>
<line x1="245.000" y1="240.000" x2="250.000" y2="244.167" stroke="#8a8a8a" stroke-width="0.18" fill="none" stroke-linecap="round"/>
<line x1="255.000" y1="240.000" x2="260.000" y2="244.167" stroke="#8a8a8a" stroke-width="0.18" fill="none" stroke-linecap="round"/>
<line x1="265.000" y1="240.000" x2="270.000" y2="244.167" stroke="#8a8a8a" stroke-width="0.18" fill="none" stroke-linecap="round"/>
<line x1="275.000" y1="240.000" x2="280.000" y2="244.167" stroke="#8a8a8a" stroke-width="0.18" fill="none" stroke-linecap="round"/>
<line x1="285.000" y1="240.000" x2="290.000" y2="244.167" stroke="#8a8a8a" stroke-width="0.18" fill="none" stroke-linecap="round"/>
<line x1="295.000" y1="240.000" x2="300.000" y2="244.167" stroke="#8a8a8a" stroke-width="0.18" fill="none" stroke-linecap="round"/>
<text x="165.000" y="216.167" font-family="Helvetica, Arial, sans-serif" font-size="1.80" font-weight="normal" fill="#8a8a8a" text-anchor="middle" dominant-baseline="middle">ESTAR / JANTAR</text>
<text x="220.000" y="216.167" font-family="Helvetica, Arial, sans-serif" font-size="1.80" font-weight="normal" fill="#8a8a8a" text-anchor="middle" dominant-baseline="middle">CORE / ESCADA</text>
<text x="125.000" y="166.167" font-family="Helvetica, Arial, sans-serif" font-size="1.80" font-weight="normal" fill="#8a8a8a" text-anchor="middle" dominant-baseline="middle">SUITE 02</text>
<g data-tipo="cota" data-eixo="V" data-parciais="5">
<line x1="290.000" y1="243.000" x2="307.200" y2="243.000" stroke="#8a8a8a" stroke-width="0.13" fill="none" stroke-linecap="round"/>
<line x1="290.000" y1="240.000" x2="307.200" y2="240.000" stroke="#8a8a8a" stroke-width="0.13" fill="none" stroke-linecap="round"/>
<line x1="290.000" y1="196.667" x2="307.200" y2="196.667" stroke="#8a8a8a" stroke-width="0.13" fill="none" stroke-linecap="round"/>
<line x1="290.000" y1="190.000" x2="307.200" y2="190.000" stroke="#8a8a8a" stroke-width="0.13" fill="none" stroke-linecap="round"/>
<line x1="290.000" y1="146.667" x2="307.200" y2="146.667" stroke="#8a8a8a" stroke-width="0.13" fill="none" stroke-linecap="round"/>
<line x1="290.000" y1="137.500" x2="307.200" y2="137.500" stroke="#8a8a8a" stroke-width="0.13" fill="none" stroke-linecap="round"/>
<line x1="306.000" y1="243.000" x2="306.000" y2="137.500" stroke="#000000" stroke-width="0.13" fill="none" stroke-linecap="round"/>
<line x1="305.300" y1="243.700" x2="306.700" y2="242.300" stroke="#000000" stroke-width="0.13" fill="none" stroke-linecap="round"/>
<line x1="305.300" y1="240.700" x2="306.700" y2="239.300" stroke="#000000" stroke-width="0.13" fill="none" stroke-linecap="round"/>
<text x="304.884" y="241.500" font-family="Helvetica, Arial, sans-serif" font-size="1.80" font-weight="normal" fill="#000000" text-anchor="middle" dominant-baseline="middle" transform="rotate(-90.00 304.884 241.500)">0,18</text>
<line x1="305.300" y1="240.700" x2="306.700" y2="239.300" stroke="#000000" stroke-width="0.13" fill="none" stroke-linecap="round"/>
<line x1="305.300" y1="197.367" x2="306.700" y2="195.967" stroke="#000000" stroke-width="0.13" fill="none" stroke-linecap="round"/>
<text x="304.884" y="218.333" font-family="Helvetica, Arial, sans-serif" font-size="1.80" font-weight="normal" fill="#000000" text-anchor="middle" dominant-baseline="middle" transform="rotate(-90.00 304.884 218.333)">2,60</text>
<line x1="305.300" y1="197.367" x2="306.700" y2="195.967" stroke="#000000" stroke-width="0.13" fill="none" stroke-linecap="round"/>
<line x1="305.300" y1="190.700" x2="306.700" y2="189.300" stroke="#000000" stroke-width="0.13" fill="none" stroke-linecap="round"/>
<text x="304.884" y="193.333" font-family="Helvetica, Arial, sans-serif" font-size="1.80" font-weight="normal" fill="#000000" text-anchor="middle" dominant-baseline="middle" transform="rotate(-90.00 304.884 193.333)">0,40</text>
<line x1="305.300" y1="190.700" x2="306.700" y2="189.300" stroke="#000000" stroke-width="0.13" fill="none" stroke-linecap="round"/>
<line x1="305.300" y1="147.367" x2="306.700" y2="145.967" stroke="#000000" stroke-width="0.13" fill="none" stroke-linecap="round"/>
<text x="304.884" y="168.333" font-family="Helvetica, Arial, sans-serif" font-size="1.80" font-weight="normal" fill="#000000" text-anchor="middle" dominant-baseline="middle" transform="rotate(-90.00 304.884 168.333)">2,60</text>
<line x1="305.300" y1="147.367" x2="306.700" y2="145.967" stroke="#000000" stroke-width="0.13" fill="none" stroke-linecap="round"/>
<line x1="305.300" y1="138.200" x2="306.700" y2="136.800" stroke="#000000" stroke-width="0.13" fill="none" stroke-linecap="round"/>
<text x="304.884" y="142.083" font-family="Helvetica, Arial, sans-serif" font-size="1.80" font-weight="normal" fill="#000000" text-anchor="middle" dominant-baseline="middle" transform="rotate(-90.00 304.884 142.083)">0,55</text>
</g>
<polygon points="68.333,243.000 66.533,240.480 70.133,240.480" stroke="#000000" stroke-width="0.18" fill="#000" stroke-linejoin="miter"/>
<text x="70.933" y="241.380" font-family="Helvetica, Arial, sans-serif" font-size="1.40" font-weight="normal" fill="#000000" text-anchor="start" dominant-baseline="middle">-0,18 (NA)</text>
<polygon points="68.333,240.000 66.533,237.480 70.133,237.480" stroke="#000000" stroke-width="0.18" fill="#000" stroke-linejoin="miter"/>
<text x="70.933" y="238.380" font-family="Helvetica, Arial, sans-serif" font-size="1.40" font-weight="normal" fill="#000000" text-anchor="start" dominant-baseline="middle">+0,00 (NA)</text>
<polygon points="68.333,196.667 66.533,194.147 70.133,194.147" stroke="#000000" stroke-width="0.18" fill="#000" stroke-linejoin="miter"/>
<text x="70.933" y="195.047" font-family="Helvetica, Arial, sans-serif" font-size="1.40" font-weight="normal" fill="#000000" text-anchor="start" dominant-baseline="middle">+2,60 (NA)</text>
<polygon points="68.333,190.000 66.533,187.480 70.133,187.480" stroke="#000000" stroke-width="0.18" fill="#000" stroke-linejoin="miter"/>
<text x="70.933" y="188.380" font-family="Helvetica, Arial, sans-serif" font-size="1.40" font-weight="normal" fill="#000000" text-anchor="start" dominant-baseline="middle">+3,00 (NA)</text>
<polygon points="68.333,146.667 66.533,144.147 70.133,144.147" stroke="#000000" stroke-width="0.18" fill="#000" stroke-linejoin="miter"/>
<text x="70.933" y="145.047" font-family="Helvetica, Arial, sans-serif" font-size="1.40" font-weight="normal" fill="#000000" text-anchor="start" dominant-baseline="middle">+5,60 (NA)</text>
<polygon points="68.333,137.500 66.533,134.980 70.133,134.980" stroke="#000000" stroke-width="0.18" fill="#000" stroke-linejoin="miter"/>
<text x="70.933" y="135.880" font-family="Helvetica, Arial, sans-serif" font-size="1.40" font-weight="normal" fill="#000000" text-anchor="start" dominant-baseline="middle">+6,15 (NA)</text>
<circle cx="84.000" cy="258.000" r="4.000" stroke="#000000" stroke-width="0.3" fill="none"/>
<text x="84.000" y="258.000" font-family="Helvetica, Arial, sans-serif" font-size="2.50" font-weight="bold" fill="#000000" text-anchor="middle" dominant-baseline="middle">1</text>
<text x="91.000" y="256.400" font-family="Helvetica, Arial, sans-serif" font-size="3.50" font-weight="bold" fill="#000000" text-anchor="start" dominant-baseline="middle">CORTE AA — TRANSVERSAL</text>
<text x="91.000" y="261.200" font-family="Helvetica, Arial, sans-serif" font-size="2.50" font-weight="normal" fill="#000000" text-anchor="start" dominant-baseline="middle">ESCALA 1:60</text>
<line x1="80.000" y1="263.600" x2="137.200" y2="263.600" stroke="#000000" stroke-width="0.3" fill="none" stroke-linecap="round"/>
<polygon points="80.000,493.000 180.000,493.000 180.000,490.000 80.000,490.000" stroke="#000000" stroke-width="0.6" fill="url(#concreto)" stroke-linejoin="miter"/>
<polygon points="80.000,446.667 180.000,446.667 180.000,444.167 80.000,444.167" stroke="#000000" stroke-width="0.6" fill="url(#concreto)" stroke-linejoin="miter"/>
<polygon points="80.000,444.167 180.000,444.167 180.000,437.500 80.000,437.500" stroke="#000000" stroke-width="0.4" fill="#fff" stroke-linejoin="miter"/>
<polygon points="180.000,493.000 340.000,493.000 340.000,490.000 180.000,490.000" stroke="#000000" stroke-width="0.6" fill="url(#concreto)" stroke-linejoin="miter"/>
<polygon points="180.000,442.500 340.000,442.500 340.000,440.000 180.000,440.000" stroke="#000000" stroke-width="0.6" fill="url(#concreto)" stroke-linejoin="miter"/>
<polygon points="180.000,396.667 340.000,396.667 340.000,394.167 180.000,394.167" stroke="#000000" stroke-width="0.6" fill="url(#concreto)" stroke-linejoin="miter"/>
<polygon points="180.000,394.167 340.000,394.167 340.000,387.500 180.000,387.500" stroke="#000000" stroke-width="0.4" fill="#fff" stroke-linejoin="miter"/>
<polygon points="340.000,493.000 400.000,493.000 400.000,490.000 340.000,490.000" stroke="#000000" stroke-width="0.6" fill="url(#concreto)" stroke-linejoin="miter"/>
<polygon points="340.000,446.667 400.000,446.667 400.000,444.167 340.000,444.167" stroke="#000000" stroke-width="0.6" fill="url(#concreto)" stroke-linejoin="miter"/>
<polygon points="340.000,444.167 400.000,444.167 400.000,437.500 340.000,437.500" stroke="#000000" stroke-width="0.4" fill="#fff" stroke-linejoin="miter"/>
<polygon points="78.750,490.000 81.250,490.000 81.250,446.667 78.750,446.667" stroke="#000000" stroke-width="0.6" fill="url(#lsfc)" stroke-linejoin="miter"/>
<polygon points="179.167,490.000 180.833,490.000 180.833,446.667 179.167,446.667" stroke="#000000" stroke-width="0.6" fill="url(#lsfc)" stroke-linejoin="miter"/>
<polygon points="398.750,490.000 401.250,490.000 401.250,446.667 398.750,446.667" stroke="#000000" stroke-width="0.6" fill="url(#lsfc)" stroke-linejoin="miter"/>
<polygon points="178.750,440.000 181.250,440.000 181.250,396.667 178.750,396.667" stroke="#000000" stroke-width="0.6" fill="url(#lsfc)" stroke-linejoin="miter"/>
<polygon points="259.167,440.000 260.833,440.000 260.833,396.667 259.167,396.667" stroke="#000000" stroke-width="0.6" fill="url(#lsfc)" stroke-linejoin="miter"/>
<polygon points="338.750,440.000 341.250,440.000 341.250,396.667 338.750,396.667" stroke="#000000" stroke-width="0.6" fill="url(#lsfc)" stroke-linejoin="miter"/>
<line x1="65.000" y1="490.000" x2="415.000" y2="490.000" stroke="#000000" stroke-width="0.6" fill="none" stroke-linecap="round"/>
<line x1="65.000" y1="490.000" x2="70.000" y2="494.167" stroke="#8a8a8a" stroke-width="0.18" fill="none" stroke-linecap="round"/>
<line x1="75.000" y1="490.000" x2="80.000" y2="494.167" stroke="#8a8a8a" stroke-width="0.18" fill="none" stroke-linecap="round"/>
<line x1="85.000" y1="490.000" x2="90.000" y2="494.167" stroke="#8a8a8a" stroke-width="0.18" fill="none" stroke-linecap="round"/>
<line x1="95.000" y1="490.000" x2="100.000" y2="494.167" stroke="#8a8a8a" stroke-width="0.18" fill="none" stroke-linecap="round"/>
<line x1="105.000" y1="490.000" x2="110.000" y2="494.167" stroke="#8a8a8a" stroke-width="0.18" fill="none" stroke-linecap="round"/>
<line x1="115.000" y1="490.000" x2="120.000" y2="494.167" stroke="#8a8a8a" stroke-width="0.18" fill="none" stroke-linecap="round"/>
<line x1="125.000" y1="490.000" x2="130.000" y2="494.167" stroke="#8a8a8a" stroke-width="0.18" fill="none" stroke-linecap="round"/>
<line x1="135.000" y1="490.000" x2="140.000" y2="494.167" stroke="#8a8a8a" stroke-width="0.18" fill="none" stroke-linecap="round"/>
<line x1="145.000" y1="490.000" x2="150.000" y2="494.167" stroke="#8a8a8a" stroke-width="0.18" fill="none" stroke-linecap="round"/>
<line x1="155.000" y1="490.000" x2="160.000" y2="494.167" stroke="#8a8a8a" stroke-width="0.18" fill="none" stroke-linecap="round"/>
<line x1="165.000" y1="490.000" x2="170.000" y2="494.167" stroke="#8a8a8a" stroke-width="0.18" fill="none" stroke-linecap="round"/>
<line x1="175.000" y1="490.000" x2="180.000" y2="494.167" stroke="#8a8a8a" stroke-width="0.18" fill="none" stroke-linecap="round"/>
<line x1="185.000" y1="490.000" x2="190.000" y2="494.167" stroke="#8a8a8a" stroke-width="0.18" fill="none" stroke-linecap="round"/>
<line x1="195.000" y1="490.000" x2="200.000" y2="494.167" stroke="#8a8a8a" stroke-width="0.18" fill="none" stroke-linecap="round"/>
<line x1="205.000" y1="490.000" x2="210.000" y2="494.167" stroke="#8a8a8a" stroke-width="0.18" fill="none" stroke-linecap="round"/>
<line x1="215.000" y1="490.000" x2="220.000" y2="494.167" stroke="#8a8a8a" stroke-width="0.18" fill="none" stroke-linecap="round"/>
<line x1="225.000" y1="490.000" x2="230.000" y2="494.167" stroke="#8a8a8a" stroke-width="0.18" fill="none" stroke-linecap="round"/>
<line x1="235.000" y1="490.000" x2="240.000" y2="494.167" stroke="#8a8a8a" stroke-width="0.18" fill="none" stroke-linecap="round"/>
<line x1="245.000" y1="490.000" x2="250.000" y2="494.167" stroke="#8a8a8a" stroke-width="0.18" fill="none" stroke-linecap="round"/>
<line x1="255.000" y1="490.000" x2="260.000" y2="494.167" stroke="#8a8a8a" stroke-width="0.18" fill="none" stroke-linecap="round"/>
<line x1="265.000" y1="490.000" x2="270.000" y2="494.167" stroke="#8a8a8a" stroke-width="0.18" fill="none" stroke-linecap="round"/>
<line x1="275.000" y1="490.000" x2="280.000" y2="494.167" stroke="#8a8a8a" stroke-width="0.18" fill="none" stroke-linecap="round"/>
<line x1="285.000" y1="490.000" x2="290.000" y2="494.167" stroke="#8a8a8a" stroke-width="0.18" fill="none" stroke-linecap="round"/>
<line x1="295.000" y1="490.000" x2="300.000" y2="494.167" stroke="#8a8a8a" stroke-width="0.18" fill="none" stroke-linecap="round"/>
<line x1="305.000" y1="490.000" x2="310.000" y2="494.167" stroke="#8a8a8a" stroke-width="0.18" fill="none" stroke-linecap="round"/>
<line x1="315.000" y1="490.000" x2="320.000" y2="494.167" stroke="#8a8a8a" stroke-width="0.18" fill="none" stroke-linecap="round"/>
<line x1="325.000" y1="490.000" x2="330.000" y2="494.167" stroke="#8a8a8a" stroke-width="0.18" fill="none" stroke-linecap="round"/>
<line x1="335.000" y1="490.000" x2="340.000" y2="494.167" stroke="#8a8a8a" stroke-width="0.18" fill="none" stroke-linecap="round"/>
<line x1="345.000" y1="490.000" x2="350.000" y2="494.167" stroke="#8a8a8a" stroke-width="0.18" fill="none" stroke-linecap="round"/>
<line x1="355.000" y1="490.000" x2="360.000" y2="494.167" stroke="#8a8a8a" stroke-width="0.18" fill="none" stroke-linecap="round"/>
<line x1="365.000" y1="490.000" x2="370.000" y2="494.167" stroke="#8a8a8a" stroke-width="0.18" fill="none" stroke-linecap="round"/>
<line x1="375.000" y1="490.000" x2="380.000" y2="494.167" stroke="#8a8a8a" stroke-width="0.18" fill="none" stroke-linecap="round"/>
<line x1="385.000" y1="490.000" x2="390.000" y2="494.167" stroke="#8a8a8a" stroke-width="0.18" fill="none" stroke-linecap="round"/>
<line x1="395.000" y1="490.000" x2="400.000" y2="494.167" stroke="#8a8a8a" stroke-width="0.18" fill="none" stroke-linecap="round"/>
<line x1="405.000" y1="490.000" x2="410.000" y2="494.167" stroke="#8a8a8a" stroke-width="0.18" fill="none" stroke-linecap="round"/>
<text x="130.000" y="466.167" font-family="Helvetica, Arial, sans-serif" font-size="1.80" font-weight="normal" fill="#8a8a8a" text-anchor="middle" dominant-baseline="middle">GARAGEM</text>
<text x="230.000" y="466.167" font-family="Helvetica, Arial, sans-serif" font-size="1.80" font-weight="normal" fill="#8a8a8a" text-anchor="middle" dominant-baseline="middle">ESTAR / JANTAR</text>
<text x="340.000" y="466.167" font-family="Helvetica, Arial, sans-serif" font-size="1.80" font-weight="normal" fill="#8a8a8a" text-anchor="middle" dominant-baseline="middle">GOURMET</text>
<text x="220.000" y="416.167" font-family="Helvetica, Arial, sans-serif" font-size="1.80" font-weight="normal" fill="#8a8a8a" text-anchor="middle" dominant-baseline="middle">SUITE 02</text>
<text x="300.000" y="416.167" font-family="Helvetica, Arial, sans-serif" font-size="1.80" font-weight="normal" fill="#8a8a8a" text-anchor="middle" dominant-baseline="middle">SUITE 03</text>
<g data-tipo="cota" data-eixo="V" data-parciais="5">
<line x1="400.000" y1="493.000" x2="417.200" y2="493.000" stroke="#8a8a8a" stroke-width="0.13" fill="none" stroke-linecap="round"/>
<line x1="400.000" y1="490.000" x2="417.200" y2="490.000" stroke="#8a8a8a" stroke-width="0.13" fill="none" stroke-linecap="round"/>
<line x1="400.000" y1="446.667" x2="417.200" y2="446.667" stroke="#8a8a8a" stroke-width="0.13" fill="none" stroke-linecap="round"/>
<line x1="400.000" y1="440.000" x2="417.200" y2="440.000" stroke="#8a8a8a" stroke-width="0.13" fill="none" stroke-linecap="round"/>
<line x1="400.000" y1="396.667" x2="417.200" y2="396.667" stroke="#8a8a8a" stroke-width="0.13" fill="none" stroke-linecap="round"/>
<line x1="400.000" y1="387.500" x2="417.200" y2="387.500" stroke="#8a8a8a" stroke-width="0.13" fill="none" stroke-linecap="round"/>
<line x1="416.000" y1="493.000" x2="416.000" y2="387.500" stroke="#000000" stroke-width="0.13" fill="none" stroke-linecap="round"/>
<line x1="415.300" y1="493.700" x2="416.700" y2="492.300" stroke="#000000" stroke-width="0.13" fill="none" stroke-linecap="round"/>
<line x1="415.300" y1="490.700" x2="416.700" y2="489.300" stroke="#000000" stroke-width="0.13" fill="none" stroke-linecap="round"/>
<text x="414.884" y="491.500" font-family="Helvetica, Arial, sans-serif" font-size="1.80" font-weight="normal" fill="#000000" text-anchor="middle" dominant-baseline="middle" transform="rotate(-90.00 414.884 491.500)">0,18</text>
<line x1="415.300" y1="490.700" x2="416.700" y2="489.300" stroke="#000000" stroke-width="0.13" fill="none" stroke-linecap="round"/>
<line x1="415.300" y1="447.367" x2="416.700" y2="445.967" stroke="#000000" stroke-width="0.13" fill="none" stroke-linecap="round"/>
<text x="414.884" y="468.333" font-family="Helvetica, Arial, sans-serif" font-size="1.80" font-weight="normal" fill="#000000" text-anchor="middle" dominant-baseline="middle" transform="rotate(-90.00 414.884 468.333)">2,60</text>
<line x1="415.300" y1="447.367" x2="416.700" y2="445.967" stroke="#000000" stroke-width="0.13" fill="none" stroke-linecap="round"/>
<line x1="415.300" y1="440.700" x2="416.700" y2="439.300" stroke="#000000" stroke-width="0.13" fill="none" stroke-linecap="round"/>
<text x="414.884" y="443.333" font-family="Helvetica, Arial, sans-serif" font-size="1.80" font-weight="normal" fill="#000000" text-anchor="middle" dominant-baseline="middle" transform="rotate(-90.00 414.884 443.333)">0,40</text>
<line x1="415.300" y1="440.700" x2="416.700" y2="439.300" stroke="#000000" stroke-width="0.13" fill="none" stroke-linecap="round"/>
<line x1="415.300" y1="397.367" x2="416.700" y2="395.967" stroke="#000000" stroke-width="0.13" fill="none" stroke-linecap="round"/>
<text x="414.884" y="418.333" font-family="Helvetica, Arial, sans-serif" font-size="1.80" font-weight="normal" fill="#000000" text-anchor="middle" dominant-baseline="middle" transform="rotate(-90.00 414.884 418.333)">2,60</text>
<line x1="415.300" y1="397.367" x2="416.700" y2="395.967" stroke="#000000" stroke-width="0.13" fill="none" stroke-linecap="round"/>
<line x1="415.300" y1="388.200" x2="416.700" y2="386.800" stroke="#000000" stroke-width="0.13" fill="none" stroke-linecap="round"/>
<text x="414.884" y="392.083" font-family="Helvetica, Arial, sans-serif" font-size="1.80" font-weight="normal" fill="#000000" text-anchor="middle" dominant-baseline="middle" transform="rotate(-90.00 414.884 392.083)">0,55</text>
</g>
<polygon points="68.333,493.000 66.533,490.480 70.133,490.480" stroke="#000000" stroke-width="0.18" fill="#000" stroke-linejoin="miter"/>
<text x="70.933" y="491.380" font-family="Helvetica, Arial, sans-serif" font-size="1.40" font-weight="normal" fill="#000000" text-anchor="start" dominant-baseline="middle">-0,18 (NA)</text>
<polygon points="68.333,490.000 66.533,487.480 70.133,487.480" stroke="#000000" stroke-width="0.18" fill="#000" stroke-linejoin="miter"/>
<text x="70.933" y="488.380" font-family="Helvetica, Arial, sans-serif" font-size="1.40" font-weight="normal" fill="#000000" text-anchor="start" dominant-baseline="middle">+0,00 (NA)</text>
<polygon points="68.333,446.667 66.533,444.147 70.133,444.147" stroke="#000000" stroke-width="0.18" fill="#000" stroke-linejoin="miter"/>
<text x="70.933" y="445.047" font-family="Helvetica, Arial, sans-serif" font-size="1.40" font-weight="normal" fill="#000000" text-anchor="start" dominant-baseline="middle">+2,60 (NA)</text>
<polygon points="68.333,440.000 66.533,437.480 70.133,437.480" stroke="#000000" stroke-width="0.18" fill="#000" stroke-linejoin="miter"/>
<text x="70.933" y="438.380" font-family="Helvetica, Arial, sans-serif" font-size="1.40" font-weight="normal" fill="#000000" text-anchor="start" dominant-baseline="middle">+3,00 (NA)</text>
<polygon points="68.333,396.667 66.533,394.147 70.133,394.147" stroke="#000000" stroke-width="0.18" fill="#000" stroke-linejoin="miter"/>
<text x="70.933" y="395.047" font-family="Helvetica, Arial, sans-serif" font-size="1.40" font-weight="normal" fill="#000000" text-anchor="start" dominant-baseline="middle">+5,60 (NA)</text>
<polygon points="68.333,387.500 66.533,384.980 70.133,384.980" stroke="#000000" stroke-width="0.18" fill="#000" stroke-linejoin="miter"/>
<text x="70.933" y="385.880" font-family="Helvetica, Arial, sans-serif" font-size="1.40" font-weight="normal" fill="#000000" text-anchor="start" dominant-baseline="middle">+6,15 (NA)</text>
<circle cx="84.000" cy="508.000" r="4.000" stroke="#000000" stroke-width="0.3" fill="none"/>
<text x="84.000" y="508.000" font-family="Helvetica, Arial, sans-serif" font-size="2.50" font-weight="bold" fill="#000000" text-anchor="middle" dominant-baseline="middle">2</text>
<text x="91.000" y="506.400" font-family="Helvetica, Arial, sans-serif" font-size="3.50" font-weight="bold" fill="#000000" text-anchor="start" dominant-baseline="middle">CORTE BB — LONGITUDINAL</text>
<text x="91.000" y="511.200" font-family="Helvetica, Arial, sans-serif" font-size="2.50" font-weight="normal" fill="#000000" text-anchor="start" dominant-baseline="middle">ESCALA 1:60</text>
<line x1="80.000" y1="513.600" x2="139.300" y2="513.600" stroke="#000000" stroke-width="0.3" fill="none" stroke-linecap="round"/>
<polygon points="80.000,528.000 113.333,528.000 113.333,529.600 80.000,529.600" stroke="#000000" stroke-width="0.18" fill="#000" stroke-linejoin="miter"/>
<text x="80.000" y="532.400" font-family="Helvetica, Arial, sans-serif" font-size="1.40" font-weight="normal" fill="#000000" text-anchor="middle" dominant-baseline="middle">0</text>
<polygon points="113.333,528.000 146.667,528.000 146.667,529.600 113.333,529.600" stroke="#000000" stroke-width="0.18" fill="#fff" stroke-linejoin="miter"/>
<text x="113.333" y="532.400" font-family="Helvetica, Arial, sans-serif" font-size="1.40" font-weight="normal" fill="#000000" text-anchor="middle" dominant-baseline="middle">2</text>
<polygon points="146.667,528.000 180.000,528.000 180.000,529.600 146.667,529.600" stroke="#000000" stroke-width="0.18" fill="#000" stroke-linejoin="miter"/>
<text x="146.667" y="532.400" font-family="Helvetica, Arial, sans-serif" font-size="1.40" font-weight="normal" fill="#000000" text-anchor="middle" dominant-baseline="middle">4</text>
<polygon points="180.000,528.000 213.333,528.000 213.333,529.600 180.000,529.600" stroke="#000000" stroke-width="0.18" fill="#fff" stroke-linejoin="miter"/>
<text x="180.000" y="532.400" font-family="Helvetica, Arial, sans-serif" font-size="1.40" font-weight="normal" fill="#000000" text-anchor="middle" dominant-baseline="middle">6</text>
<polygon points="213.333,528.000 246.667,528.000 246.667,529.600 213.333,529.600" stroke="#000000" stroke-width="0.18" fill="#000" stroke-linejoin="miter"/>
<text x="213.333" y="532.400" font-family="Helvetica, Arial, sans-serif" font-size="1.40" font-weight="normal" fill="#000000" text-anchor="middle" dominant-baseline="middle">8</text>
<text x="246.667" y="532.400" font-family="Helvetica, Arial, sans-serif" font-size="1.40" font-weight="normal" fill="#000000" text-anchor="start" dominant-baseline="middle">10 m</text>
</g>
</svg>
